<svg width="33" height="24" viewBox="0 0 33 24" fill="none" xmlns="http://www.w3.org/2000/svg">
<path d="M18.401 20.7865H23.9583V23.9583H18.401V20.7865Z" fill="#3AF1F9"/>
<path d="M29.5156 12.0521V8.87501H27.1302V6.4948H23.9583V3.31772H20.7812V6.4948H12.8437V3.31772H9.66666V6.4948H6.48957V8.87501H4.10936V12.0521H0.932281V20.7865H4.10936V15.2292H6.48957V20.7865H9.66666V15.2292H12.0469V17.6094H21.5729V15.2292H23.9583V20.7865H27.1302V15.2292H29.5156V20.7865H32.6875V12.0521H29.5156ZM9.66666 12.0521V8.87501H12.0469V12.0521H9.66666ZM21.5729 12.0521V8.87501H23.9583V12.0521H21.5729Z" fill="#3AF1F9"/>
<path d="M23.9583 0.145844H27.1302V3.31772H23.9583V0.145844Z" fill="#3AF1F9"/>
<path d="M9.66666 20.7865H15.2239V23.9583H9.66666V20.7865Z" fill="#3AF1F9"/>
<path d="M6.48959 0.145844H9.66668V3.31772H6.48959V0.145844Z" fill="#3AF1F9"/>
</svg>
