<svg width="33" height="24" viewBox="0 0 33 24" fill="none" xmlns="http://www.w3.org/2000/svg">
<path d="M17.9844 20.7865H23.5417V23.9583H17.9844V20.7865Z" fill="#91F963"/>
<path d="M29.0938 12.0521V8.87501H26.7135V6.4948H23.5417V3.31772H20.3646V6.4948H12.4271V3.31772H9.25V6.4948H6.07292V8.87501H3.69271V12.0521H0.515625V20.7865H3.69271V15.2292H6.07292V20.7865H9.25V15.2292H11.6302V17.6094H21.1563V15.2292H23.5417V20.7865H26.7135V15.2292H29.0938V20.7865H32.2708V12.0521H29.0938ZM9.25 12.0521V8.87501H11.6302V12.0521H9.25ZM21.1563 12.0521V8.87501H23.5417V12.0521H21.1563Z" fill="#91F963"/>
<path d="M23.5417 0.145844H26.7135V3.31772H23.5417V0.145844Z" fill="#91F963"/>
<path d="M9.25 20.7865H14.8073V23.9583H9.25V20.7865Z" fill="#91F963"/>
<path d="M6.07292 0.145844H9.25001V3.31772H6.07292V0.145844Z" fill="#91F963"/>
</svg>
