<svg width="33" height="24" viewBox="0 0 33 24" fill="none" xmlns="http://www.w3.org/2000/svg">
<path d="M18.2396 20.7865H23.7969V23.9583H18.2396V20.7865Z" fill="#D500F9"/>
<path d="M29.3542 12.0521V8.87501H26.974V6.4948H23.7969V3.31772H20.625V6.4948H12.6823V3.31772H9.51042V6.4948H6.33334V8.87501H3.95313V12.0521H0.776047V20.7865H3.95313V15.2292H6.33334V20.7865H9.51042V15.2292H11.8906V17.6094H21.4167V15.2292H23.7969V20.7865H26.974V15.2292H29.3542V20.7865H32.5313V12.0521H29.3542ZM9.51042 12.0521V8.87501H11.8906V12.0521H9.51042ZM21.4167 12.0521V8.87501H23.7969V12.0521H21.4167Z" fill="#D500F9"/>
<path d="M23.7969 0.145844H26.974V3.31772H23.7969V0.145844Z" fill="#D500F9"/>
<path d="M9.51041 20.7865H15.0677V23.9583H9.51041V20.7865Z" fill="#D500F9"/>
<path d="M6.33333 0.145844H9.51041V3.31772H6.33333V0.145844Z" fill="#D500F9"/>
</svg>
